<svg xmlns="http://www.w3.org/2000/svg" xmlns:xlink="http://www.w3.org/1999/xlink" width="500" zoomAndPan="magnify" viewBox="0 0 375 374.999991" height="500" preserveAspectRatio="xMidYMid meet" version="1.0"><defs><clipPath id="c84967bf13"><path d="M 132 19.667969 L 297 19.667969 L 297 184 L 132 184 Z M 132 19.667969 " clip-rule="nonzero"/></clipPath><clipPath id="b666573fb0"><path d="M 78 210 L 351.484375 210 L 351.484375 347.417969 L 78 347.417969 Z M 78 210 " clip-rule="nonzero"/></clipPath><clipPath id="8d52222c2b"><path d="M 23.734375 115 L 133 115 L 133 225 L 23.734375 225 Z M 23.734375 115 " clip-rule="nonzero"/></clipPath></defs><g clip-path="url(#c84967bf13)"><path fill="#000000" d="M 296.859375 101.605469 C 296.859375 56.351562 260.171875 19.667969 214.921875 19.667969 C 169.667969 19.667969 132.984375 56.351562 132.984375 101.605469 C 132.984375 146.859375 169.667969 183.542969 214.921875 183.542969 C 260.152344 183.496094 296.8125 146.839844 296.859375 101.605469 Z M 160.296875 101.605469 C 160.296875 71.4375 184.75 46.980469 214.921875 46.980469 C 245.089844 46.980469 269.546875 71.4375 269.546875 101.605469 C 269.546875 131.773438 245.089844 156.230469 214.921875 156.230469 C 184.75 156.230469 160.296875 131.773438 160.296875 101.605469 Z M 160.296875 101.605469 " fill-opacity="1" fill-rule="nonzero"/></g><g clip-path="url(#b666573fb0)"><path fill="#000000" d="M 255.890625 210.855469 L 173.953125 210.855469 C 121.179688 210.914062 78.417969 253.679688 78.359375 306.449219 L 78.359375 333.761719 C 78.359375 341.304688 84.472656 347.417969 92.015625 347.417969 C 99.554688 347.417969 105.671875 341.304688 105.671875 333.761719 L 105.671875 306.449219 C 105.714844 268.757812 136.257812 238.214844 173.953125 238.167969 L 255.890625 238.167969 C 293.582031 238.214844 324.125 268.757812 324.171875 306.449219 L 324.171875 333.761719 C 324.171875 341.304688 330.285156 347.417969 337.828125 347.417969 C 345.367188 347.417969 351.484375 341.304688 351.484375 333.761719 L 351.484375 306.449219 C 351.421875 253.679688 308.660156 210.914062 255.890625 210.855469 Z M 255.890625 210.855469 " fill-opacity="1" fill-rule="nonzero"/></g><g clip-path="url(#8d52222c2b)"><path fill="#000000" d="M 78.359375 115.261719 C 70.816406 115.261719 64.703125 121.375 64.703125 128.917969 L 64.703125 156.230469 L 37.390625 156.230469 C 29.847656 156.230469 23.734375 162.34375 23.734375 169.886719 C 23.734375 177.429688 29.847656 183.542969 37.390625 183.542969 L 64.703125 183.542969 L 64.703125 210.855469 C 64.703125 218.398438 70.816406 224.511719 78.359375 224.511719 C 85.898438 224.511719 92.015625 218.398438 92.015625 210.855469 L 92.015625 183.542969 L 119.328125 183.542969 C 126.867188 183.542969 132.984375 177.429688 132.984375 169.886719 C 132.984375 162.34375 126.867188 156.230469 119.328125 156.230469 L 92.015625 156.230469 L 92.015625 128.917969 C 92.015625 121.375 85.898438 115.261719 78.359375 115.261719 Z M 78.359375 115.261719 " fill-opacity="1" fill-rule="nonzero"/></g></svg>