<svg xmlns="http://www.w3.org/2000/svg" xmlns:xlink="http://www.w3.org/1999/xlink" width="500" zoomAndPan="magnify" viewBox="0 0 375 374.999991" height="500" preserveAspectRatio="xMidYMid meet" version="1.0"><defs><clipPath id="91a6f594a2"><path d="M 153 68.023438 L 213 68.023438 L 213 129 L 153 129 Z M 153 68.023438 " clip-rule="nonzero"/></clipPath></defs><path fill="#000000" d="M 123.75 138.09375 C 124.5625 138.09375 125.371094 138.054688 126.175781 137.972656 C 126.984375 137.894531 127.785156 137.777344 128.582031 137.617188 C 129.375 137.460938 130.160156 137.261719 130.9375 137.027344 C 131.714844 136.789062 132.476562 136.519531 133.226562 136.207031 C 133.972656 135.898438 134.707031 135.550781 135.421875 135.167969 C 136.136719 134.785156 136.832031 134.367188 137.503906 133.917969 C 138.179688 133.46875 138.832031 132.984375 139.457031 132.46875 C 140.085938 131.953125 140.683594 131.410156 141.257812 130.835938 C 141.832031 130.261719 142.375 129.660156 142.890625 129.035156 C 143.402344 128.40625 143.886719 127.757812 144.335938 127.082031 C 144.789062 126.40625 145.203125 125.710938 145.585938 124.996094 C 145.96875 124.28125 146.316406 123.546875 146.625 122.796875 C 146.933594 122.046875 147.207031 121.285156 147.445312 120.507812 C 147.679688 119.730469 147.875 118.945312 148.035156 118.148438 C 148.191406 117.355469 148.3125 116.550781 148.390625 115.746094 C 148.46875 114.9375 148.507812 114.128906 148.507812 113.316406 C 148.507812 112.503906 148.46875 111.695312 148.390625 110.886719 C 148.3125 110.082031 148.191406 109.277344 148.035156 108.484375 C 147.875 107.6875 147.679688 106.902344 147.445312 106.125 C 147.207031 105.347656 146.933594 104.585938 146.625 103.835938 C 146.316406 103.085938 145.96875 102.351562 145.585938 101.636719 C 145.203125 100.921875 144.789062 100.226562 144.335938 99.550781 C 143.886719 98.875 143.402344 98.226562 142.890625 97.597656 C 142.375 96.96875 141.832031 96.371094 141.257812 95.796875 C 140.683594 95.222656 140.085938 94.679688 139.457031 94.164062 C 138.832031 93.648438 138.179688 93.164062 137.503906 92.714844 C 136.832031 92.265625 136.136719 91.847656 135.421875 91.464844 C 134.707031 91.082031 133.972656 90.734375 133.226562 90.425781 C 132.476562 90.113281 131.714844 89.839844 130.9375 89.605469 C 130.160156 89.371094 129.375 89.171875 128.582031 89.015625 C 127.785156 88.855469 126.984375 88.738281 126.175781 88.660156 C 125.371094 88.578125 124.5625 88.539062 123.75 88.539062 C 122.9375 88.539062 122.128906 88.578125 121.324219 88.660156 C 120.515625 88.738281 119.714844 88.855469 118.917969 89.015625 C 118.125 89.171875 117.339844 89.371094 116.5625 89.605469 C 115.785156 89.839844 115.023438 90.113281 114.273438 90.425781 C 113.527344 90.734375 112.792969 91.082031 112.078125 91.464844 C 111.363281 91.847656 110.667969 92.265625 109.996094 92.714844 C 109.320312 93.164062 108.667969 93.648438 108.042969 94.164062 C 107.414062 94.679688 106.816406 95.222656 106.242188 95.796875 C 105.667969 96.371094 105.125 96.96875 104.609375 97.597656 C 104.097656 98.226562 103.613281 98.875 103.164062 99.550781 C 102.710938 100.226562 102.296875 100.921875 101.914062 101.636719 C 101.53125 102.351562 101.183594 103.085938 100.875 103.835938 C 100.566406 104.585938 100.292969 105.347656 100.054688 106.125 C 99.820312 106.902344 99.625 107.6875 99.464844 108.484375 C 99.308594 109.277344 99.1875 110.082031 99.109375 110.886719 C 99.03125 111.695312 98.992188 112.503906 98.992188 113.316406 C 98.992188 114.128906 99.03125 114.9375 99.109375 115.746094 C 99.1875 116.550781 99.308594 117.355469 99.464844 118.148438 C 99.625 118.945312 99.820312 119.730469 100.054688 120.507812 C 100.292969 121.285156 100.566406 122.046875 100.875 122.796875 C 101.183594 123.546875 101.53125 124.28125 101.914062 124.996094 C 102.296875 125.710938 102.710938 126.40625 103.164062 127.082031 C 103.613281 127.757812 104.097656 128.40625 104.609375 129.035156 C 105.125 129.660156 105.667969 130.261719 106.242188 130.835938 C 106.816406 131.410156 107.414062 131.953125 108.042969 132.46875 C 108.667969 132.984375 109.320312 133.46875 109.996094 133.917969 C 110.667969 134.367188 111.363281 134.785156 112.078125 135.167969 C 112.792969 135.550781 113.527344 135.898438 114.273438 136.207031 C 115.023438 136.519531 115.785156 136.789062 116.5625 137.027344 C 117.339844 137.261719 118.125 137.460938 118.917969 137.617188 C 119.714844 137.777344 120.515625 137.894531 121.324219 137.972656 C 122.128906 138.054688 122.9375 138.09375 123.75 138.09375 Z M 123.75 98.449219 C 124.726562 98.449219 125.691406 98.546875 126.648438 98.734375 C 127.605469 98.925781 128.535156 99.207031 129.433594 99.582031 C 130.335938 99.957031 131.191406 100.414062 132.003906 100.957031 C 132.816406 101.496094 133.566406 102.113281 134.253906 102.804688 C 134.945312 103.496094 135.558594 104.246094 136.101562 105.058594 C 136.644531 105.867188 137.101562 106.726562 137.476562 107.628906 C 137.847656 108.527344 138.128906 109.457031 138.320312 110.417969 C 138.511719 111.375 138.605469 112.339844 138.605469 113.316406 C 138.605469 114.292969 138.511719 115.257812 138.320312 116.214844 C 138.128906 117.175781 137.847656 118.105469 137.476562 119.003906 C 137.101562 119.90625 136.644531 120.765625 136.101562 121.574219 C 135.558594 122.386719 134.945312 123.136719 134.253906 123.828125 C 133.566406 124.519531 132.816406 125.136719 132.003906 125.675781 C 131.191406 126.21875 130.335938 126.675781 129.433594 127.050781 C 128.535156 127.425781 127.605469 127.707031 126.648438 127.898438 C 125.691406 128.085938 124.726562 128.183594 123.75 128.183594 C 122.773438 128.183594 121.808594 128.085938 120.851562 127.898438 C 119.894531 127.707031 118.964844 127.425781 118.066406 127.050781 C 117.164062 126.675781 116.308594 126.21875 115.496094 125.675781 C 114.6875 125.136719 113.933594 124.519531 113.246094 123.828125 C 112.554688 123.136719 111.941406 122.386719 111.398438 121.574219 C 110.855469 120.765625 110.398438 119.90625 110.023438 119.003906 C 109.652344 118.105469 109.371094 117.175781 109.179688 116.214844 C 108.988281 115.257812 108.894531 114.292969 108.894531 113.316406 C 108.894531 112.339844 108.988281 111.375 109.179688 110.417969 C 109.371094 109.457031 109.652344 108.527344 110.023438 107.628906 C 110.398438 106.726562 110.855469 105.867188 111.398438 105.058594 C 111.941406 104.246094 112.554688 103.496094 113.246094 102.804688 C 113.933594 102.113281 114.6875 101.496094 115.496094 100.957031 C 116.308594 100.414062 117.164062 99.957031 118.066406 99.582031 C 118.964844 99.207031 119.894531 98.925781 120.851562 98.734375 C 121.808594 98.546875 122.773438 98.449219 123.75 98.449219 Z M 123.75 98.449219 " fill-opacity="1" fill-rule="nonzero"/><path fill="#000000" d="M 118.796875 143.050781 L 108.894531 143.050781 C 89.78125 143.050781 74.230469 156.378906 74.230469 172.78125 L 74.230469 217.378906 C 74.230469 226.945312 82.75 234.972656 94.039062 236.804688 L 94.039062 301.621094 C 94.039062 301.949219 94.070312 302.269531 94.132812 302.589844 C 94.195312 302.90625 94.292969 303.21875 94.414062 303.519531 C 94.539062 303.820312 94.691406 304.105469 94.875 304.375 C 95.054688 304.644531 95.257812 304.894531 95.488281 305.125 C 95.71875 305.355469 95.96875 305.5625 96.238281 305.742188 C 96.507812 305.921875 96.796875 306.074219 97.09375 306.199219 C 97.394531 306.324219 97.707031 306.417969 98.023438 306.480469 C 98.34375 306.546875 98.664062 306.578125 98.992188 306.578125 C 99.316406 306.578125 99.636719 306.546875 99.957031 306.480469 C 100.277344 306.417969 100.585938 306.324219 100.886719 306.199219 C 101.1875 306.074219 101.472656 305.921875 101.742188 305.742188 C 102.011719 305.5625 102.261719 305.355469 102.492188 305.125 C 102.722656 304.894531 102.925781 304.644531 103.109375 304.375 C 103.289062 304.105469 103.441406 303.820312 103.566406 303.519531 C 103.691406 303.21875 103.785156 302.90625 103.847656 302.589844 C 103.910156 302.269531 103.941406 301.949219 103.941406 301.621094 L 103.941406 172.78125 C 103.941406 172.457031 103.910156 172.132812 103.847656 171.816406 C 103.785156 171.496094 103.691406 171.1875 103.566406 170.886719 C 103.441406 170.585938 103.289062 170.296875 103.109375 170.027344 C 102.925781 169.757812 102.722656 169.507812 102.492188 169.277344 C 102.261719 169.046875 102.011719 168.84375 101.742188 168.660156 C 101.472656 168.480469 101.1875 168.328125 100.886719 168.203125 C 100.585938 168.078125 100.277344 167.984375 99.957031 167.921875 C 99.636719 167.859375 99.316406 167.824219 98.992188 167.824219 C 98.664062 167.824219 98.34375 167.859375 98.023438 167.921875 C 97.707031 167.984375 97.394531 168.078125 97.09375 168.203125 C 96.796875 168.328125 96.507812 168.480469 96.238281 168.660156 C 95.96875 168.84375 95.71875 169.046875 95.488281 169.277344 C 95.257812 169.507812 95.054688 169.757812 94.875 170.027344 C 94.691406 170.296875 94.539062 170.585938 94.414062 170.886719 C 94.292969 171.1875 94.195312 171.496094 94.132812 171.816406 C 94.070312 172.132812 94.039062 172.457031 94.039062 172.78125 L 94.039062 226.648438 C 88.34375 225.257812 84.132812 221.691406 84.132812 217.378906 L 84.132812 172.78125 C 84.132812 161.828125 95.226562 152.960938 108.894531 152.960938 L 118.796875 152.960938 C 119.125 152.960938 119.445312 152.929688 119.765625 152.863281 C 120.082031 152.800781 120.394531 152.707031 120.691406 152.582031 C 120.992188 152.457031 121.277344 152.304688 121.550781 152.125 C 121.820312 151.945312 122.070312 151.738281 122.300781 151.507812 C 122.53125 151.277344 122.734375 151.027344 122.914062 150.757812 C 123.097656 150.488281 123.25 150.203125 123.375 149.902344 C 123.496094 149.601562 123.589844 149.289062 123.65625 148.972656 C 123.71875 148.652344 123.75 148.328125 123.75 148.003906 C 123.75 147.679688 123.71875 147.355469 123.65625 147.039062 C 123.589844 146.71875 123.496094 146.410156 123.375 146.109375 C 123.25 145.808594 123.097656 145.523438 122.914062 145.25 C 122.734375 144.980469 122.53125 144.730469 122.300781 144.5 C 122.070312 144.269531 121.820312 144.066406 121.550781 143.882812 C 121.277344 143.703125 120.992188 143.550781 120.691406 143.425781 C 120.394531 143.300781 120.082031 143.207031 119.765625 143.144531 C 119.445312 143.082031 119.125 143.050781 118.796875 143.050781 Z M 118.796875 143.050781 " fill-opacity="1" fill-rule="nonzero"/><path fill="#000000" d="M 118.796875 237.203125 L 118.796875 301.621094 C 118.796875 301.949219 118.828125 302.269531 118.894531 302.589844 C 118.957031 302.90625 119.050781 303.21875 119.175781 303.519531 C 119.300781 303.820312 119.453125 304.105469 119.632812 304.375 C 119.8125 304.644531 120.019531 304.894531 120.25 305.125 C 120.476562 305.355469 120.730469 305.5625 121 305.742188 C 121.269531 305.921875 121.554688 306.074219 121.855469 306.199219 C 122.15625 306.324219 122.464844 306.417969 122.785156 306.480469 C 123.101562 306.546875 123.425781 306.578125 123.75 306.578125 C 124.074219 306.578125 124.398438 306.546875 124.714844 306.480469 C 125.035156 306.417969 125.34375 306.324219 125.644531 306.199219 C 125.945312 306.074219 126.230469 305.921875 126.5 305.742188 C 126.773438 305.5625 127.023438 305.355469 127.25 305.125 C 127.480469 304.894531 127.6875 304.644531 127.867188 304.375 C 128.046875 304.105469 128.199219 303.820312 128.324219 303.519531 C 128.449219 303.21875 128.542969 302.90625 128.605469 302.589844 C 128.671875 302.269531 128.703125 301.949219 128.703125 301.621094 L 128.703125 237.203125 C 128.703125 236.875 128.671875 236.554688 128.605469 236.234375 C 128.542969 235.914062 128.449219 235.605469 128.324219 235.304688 C 128.199219 235.003906 128.046875 234.71875 127.867188 234.449219 C 127.6875 234.179688 127.480469 233.929688 127.25 233.699219 C 127.023438 233.46875 126.773438 233.261719 126.5 233.082031 C 126.230469 232.902344 125.945312 232.75 125.644531 232.625 C 125.34375 232.5 125.035156 232.40625 124.714844 232.339844 C 124.398438 232.277344 124.074219 232.246094 123.75 232.246094 C 123.425781 232.246094 123.101562 232.277344 122.785156 232.339844 C 122.464844 232.40625 122.15625 232.5 121.855469 232.625 C 121.554688 232.75 121.269531 232.902344 121 233.082031 C 120.730469 233.261719 120.476562 233.46875 120.25 233.699219 C 120.019531 233.929688 119.8125 234.179688 119.632812 234.449219 C 119.453125 234.71875 119.300781 235.003906 119.175781 235.304688 C 119.050781 235.605469 118.957031 235.914062 118.894531 236.234375 C 118.828125 236.554688 118.796875 236.875 118.796875 237.203125 Z M 118.796875 237.203125 " fill-opacity="1" fill-rule="nonzero"/><g clip-path="url(#91a6f594a2)"><path fill="#000000" d="M 183.171875 128.183594 C 184.144531 128.183594 185.117188 128.136719 186.085938 128.039062 C 187.054688 127.945312 188.015625 127.800781 188.96875 127.609375 C 189.925781 127.421875 190.867188 127.183594 191.796875 126.902344 C 192.730469 126.621094 193.644531 126.292969 194.542969 125.917969 C 195.441406 125.546875 196.320312 125.128906 197.179688 124.671875 C 198.039062 124.210938 198.871094 123.710938 199.679688 123.171875 C 200.488281 122.628906 201.269531 122.050781 202.023438 121.433594 C 202.773438 120.816406 203.496094 120.164062 204.183594 119.472656 C 204.871094 118.785156 205.523438 118.066406 206.140625 117.3125 C 206.757812 116.558594 207.335938 115.777344 207.878906 114.96875 C 208.417969 114.160156 208.917969 113.324219 209.375 112.464844 C 209.835938 111.605469 210.25 110.726562 210.621094 109.828125 C 210.996094 108.929688 211.324219 108.011719 211.605469 107.082031 C 211.886719 106.148438 212.125 105.207031 212.3125 104.25 C 212.503906 103.296875 212.644531 102.332031 212.742188 101.363281 C 212.835938 100.394531 212.882812 99.425781 212.882812 98.449219 C 212.882812 97.476562 212.835938 96.503906 212.742188 95.535156 C 212.644531 94.566406 212.503906 93.605469 212.3125 92.648438 C 212.125 91.695312 211.886719 90.75 211.605469 89.820312 C 211.324219 88.886719 210.996094 87.972656 210.621094 87.070312 C 210.25 86.171875 209.835938 85.292969 209.375 84.433594 C 208.917969 83.574219 208.417969 82.742188 207.878906 81.929688 C 207.335938 81.121094 206.757812 80.339844 206.140625 79.589844 C 205.523438 78.835938 204.871094 78.113281 204.183594 77.425781 C 203.496094 76.738281 202.773438 76.085938 202.023438 75.464844 C 201.269531 74.847656 200.488281 74.269531 199.679688 73.726562 C 198.871094 73.1875 198.039062 72.6875 197.179688 72.226562 C 196.320312 71.769531 195.441406 71.351562 194.542969 70.980469 C 193.644531 70.609375 192.730469 70.28125 191.796875 69.996094 C 190.867188 69.714844 189.925781 69.480469 188.96875 69.289062 C 188.015625 69.097656 187.054688 68.957031 186.085938 68.859375 C 185.117188 68.765625 184.144531 68.71875 183.171875 68.71875 C 182.199219 68.71875 181.230469 68.765625 180.261719 68.859375 C 179.292969 68.957031 178.332031 69.097656 177.375 69.289062 C 176.421875 69.480469 175.480469 69.714844 174.546875 69.996094 C 173.617188 70.28125 172.703125 70.609375 171.804688 70.980469 C 170.902344 71.351562 170.027344 71.769531 169.167969 72.226562 C 168.308594 72.6875 167.476562 73.1875 166.667969 73.726562 C 165.855469 74.269531 165.078125 74.847656 164.324219 75.464844 C 163.570312 76.085938 162.851562 76.738281 162.164062 77.425781 C 161.476562 78.113281 160.824219 78.835938 160.207031 79.589844 C 159.589844 80.339844 159.007812 81.121094 158.46875 81.929688 C 157.929688 82.742188 157.429688 83.574219 156.96875 84.433594 C 156.511719 85.292969 156.09375 86.171875 155.722656 87.070312 C 155.351562 87.972656 155.023438 88.886719 154.742188 89.820312 C 154.457031 90.75 154.222656 91.695312 154.03125 92.648438 C 153.84375 93.605469 153.699219 94.566406 153.605469 95.535156 C 153.507812 96.503906 153.460938 97.476562 153.460938 98.449219 C 153.460938 99.425781 153.507812 100.394531 153.605469 101.363281 C 153.699219 102.332031 153.84375 103.296875 154.03125 104.25 C 154.222656 105.207031 154.457031 106.148438 154.742188 107.082031 C 155.023438 108.011719 155.351562 108.929688 155.722656 109.828125 C 156.09375 110.726562 156.511719 111.605469 156.96875 112.464844 C 157.429688 113.324219 157.929688 114.160156 158.46875 114.96875 C 159.007812 115.777344 159.589844 116.558594 160.207031 117.3125 C 160.824219 118.066406 161.476562 118.785156 162.164062 119.472656 C 162.851562 120.164062 163.570312 120.816406 164.324219 121.433594 C 165.078125 122.050781 165.855469 122.628906 166.667969 123.171875 C 167.476562 123.710938 168.308594 124.210938 169.167969 124.671875 C 170.027344 125.128906 170.902344 125.546875 171.804688 125.917969 C 172.703125 126.292969 173.617188 126.621094 174.546875 126.902344 C 175.480469 127.183594 176.421875 127.421875 177.375 127.609375 C 178.332031 127.800781 179.292969 127.945312 180.261719 128.039062 C 181.230469 128.136719 182.199219 128.183594 183.171875 128.183594 Z M 183.171875 78.628906 C 183.820312 78.628906 184.46875 78.660156 185.113281 78.722656 C 185.761719 78.789062 186.402344 78.882812 187.039062 79.007812 C 187.671875 79.136719 188.300781 79.292969 188.921875 79.480469 C 189.542969 79.671875 190.152344 79.890625 190.753906 80.136719 C 191.351562 80.386719 191.9375 80.664062 192.511719 80.96875 C 193.082031 81.273438 193.636719 81.609375 194.175781 81.96875 C 194.71875 82.328125 195.238281 82.714844 195.738281 83.128906 C 196.242188 83.539062 196.71875 83.976562 197.179688 84.433594 C 197.636719 84.894531 198.074219 85.375 198.484375 85.875 C 198.894531 86.378906 199.28125 86.898438 199.644531 87.4375 C 200.003906 87.976562 200.335938 88.535156 200.640625 89.105469 C 200.949219 89.679688 201.226562 90.265625 201.472656 90.863281 C 201.722656 91.464844 201.941406 92.074219 202.128906 92.695312 C 202.316406 93.316406 202.472656 93.945312 202.601562 94.582031 C 202.726562 95.21875 202.820312 95.859375 202.886719 96.507812 C 202.949219 97.152344 202.980469 97.800781 202.980469 98.449219 C 202.980469 99.097656 202.949219 99.746094 202.886719 100.394531 C 202.820312 101.039062 202.726562 101.679688 202.601562 102.316406 C 202.472656 102.953125 202.316406 103.582031 202.128906 104.203125 C 201.941406 104.824219 201.722656 105.4375 201.472656 106.035156 C 201.226562 106.636719 200.949219 107.222656 200.640625 107.792969 C 200.335938 108.367188 200.003906 108.921875 199.644531 109.460938 C 199.28125 110.003906 198.894531 110.523438 198.484375 111.023438 C 198.074219 111.527344 197.636719 112.007812 197.179688 112.464844 C 196.71875 112.925781 196.242188 113.359375 195.738281 113.773438 C 195.238281 114.183594 194.71875 114.570312 194.175781 114.929688 C 193.636719 115.292969 193.082031 115.625 192.511719 115.929688 C 191.9375 116.238281 191.351562 116.515625 190.753906 116.761719 C 190.152344 117.011719 189.542969 117.230469 188.921875 117.417969 C 188.300781 117.605469 187.671875 117.765625 187.039062 117.890625 C 186.402344 118.015625 185.761719 118.113281 185.113281 118.175781 C 184.46875 118.238281 183.820312 118.273438 183.171875 118.273438 C 182.523438 118.273438 181.878906 118.238281 181.230469 118.175781 C 180.585938 118.113281 179.945312 118.015625 179.308594 117.890625 C 178.671875 117.765625 178.042969 117.605469 177.421875 117.417969 C 176.800781 117.230469 176.191406 117.011719 175.59375 116.761719 C 174.992188 116.515625 174.40625 116.238281 173.835938 115.929688 C 173.265625 115.625 172.707031 115.292969 172.167969 114.929688 C 171.628906 114.570312 171.109375 114.183594 170.605469 113.773438 C 170.105469 113.359375 169.625 112.925781 169.167969 112.464844 C 168.707031 112.007812 168.273438 111.527344 167.863281 111.023438 C 167.449219 110.523438 167.0625 110.003906 166.703125 109.460938 C 166.34375 108.921875 166.011719 108.367188 165.703125 107.792969 C 165.398438 107.222656 165.121094 106.636719 164.875 106.035156 C 164.625 105.4375 164.40625 104.824219 164.21875 104.203125 C 164.03125 103.582031 163.871094 102.953125 163.746094 102.316406 C 163.621094 101.679688 163.523438 101.039062 163.460938 100.394531 C 163.398438 99.746094 163.367188 99.097656 163.367188 98.449219 C 163.367188 97.800781 163.398438 97.152344 163.460938 96.507812 C 163.523438 95.859375 163.621094 95.21875 163.746094 94.582031 C 163.871094 93.945312 164.03125 93.316406 164.21875 92.695312 C 164.40625 92.074219 164.625 91.464844 164.875 90.863281 C 165.121094 90.265625 165.398438 89.679688 165.703125 89.105469 C 166.011719 88.535156 166.34375 87.976562 166.703125 87.4375 C 167.0625 86.898438 167.449219 86.378906 167.863281 85.875 C 168.273438 85.375 168.707031 84.894531 169.167969 84.433594 C 169.625 83.976562 170.105469 83.539062 170.605469 83.128906 C 171.109375 82.714844 171.628906 82.328125 172.167969 81.96875 C 172.707031 81.609375 173.265625 81.273438 173.835938 80.96875 C 174.40625 80.664062 174.992188 80.386719 175.59375 80.136719 C 176.191406 79.890625 176.800781 79.671875 177.421875 79.480469 C 178.042969 79.292969 178.671875 79.136719 179.308594 79.007812 C 179.945312 78.882812 180.585938 78.789062 181.230469 78.722656 C 181.878906 78.660156 182.523438 78.628906 183.171875 78.628906 Z M 183.171875 78.628906 " fill-opacity="1" fill-rule="nonzero"/></g><path fill="#000000" d="M 202.980469 133.136719 L 163.367188 133.136719 C 144.25 133.136719 128.703125 146.46875 128.703125 162.871094 L 128.703125 192.601562 C 128.703125 193.578125 128.796875 194.546875 128.988281 195.503906 C 129.179688 196.460938 129.460938 197.390625 129.832031 198.292969 C 130.207031 199.195312 130.664062 200.050781 131.207031 200.863281 C 131.746094 201.671875 132.363281 202.425781 133.054688 203.113281 C 133.742188 203.804688 134.492188 204.421875 135.304688 204.964844 C 136.117188 205.507812 136.972656 205.964844 137.871094 206.335938 C 138.773438 206.710938 139.703125 206.992188 140.660156 207.183594 C 141.617188 207.375 142.582031 207.46875 143.558594 207.46875 L 148.507812 207.46875 L 148.507812 301.621094 C 148.507812 301.949219 148.542969 302.269531 148.605469 302.589844 C 148.667969 302.90625 148.761719 303.21875 148.886719 303.519531 C 149.011719 303.820312 149.164062 304.105469 149.34375 304.375 C 149.523438 304.644531 149.730469 304.894531 149.960938 305.125 C 150.191406 305.355469 150.441406 305.5625 150.710938 305.742188 C 150.980469 305.921875 151.265625 306.074219 151.566406 306.199219 C 151.867188 306.324219 152.175781 306.417969 152.496094 306.480469 C 152.816406 306.546875 153.136719 306.578125 153.460938 306.578125 C 153.785156 306.578125 154.109375 306.546875 154.425781 306.480469 C 154.746094 306.417969 155.054688 306.324219 155.355469 306.199219 C 155.65625 306.074219 155.941406 305.921875 156.210938 305.742188 C 156.484375 305.5625 156.734375 305.355469 156.964844 305.125 C 157.191406 304.894531 157.398438 304.644531 157.578125 304.375 C 157.757812 304.105469 157.914062 303.820312 158.035156 303.519531 C 158.160156 303.21875 158.253906 302.90625 158.320312 302.589844 C 158.382812 302.269531 158.414062 301.949219 158.414062 301.621094 L 158.414062 207.46875 L 207.933594 207.46875 L 207.933594 301.621094 C 207.933594 301.949219 207.964844 302.269531 208.027344 302.589844 C 208.089844 302.90625 208.183594 303.21875 208.308594 303.519531 C 208.433594 303.820312 208.585938 304.105469 208.765625 304.375 C 208.949219 304.644531 209.152344 304.894531 209.382812 305.125 C 209.613281 305.355469 209.863281 305.5625 210.132812 305.742188 C 210.402344 305.921875 210.6875 306.074219 210.988281 306.199219 C 211.289062 306.324219 211.601562 306.417969 211.917969 306.480469 C 212.238281 306.546875 212.558594 306.578125 212.882812 306.578125 C 213.210938 306.578125 213.53125 306.546875 213.851562 306.480469 C 214.167969 306.417969 214.480469 306.324219 214.78125 306.199219 C 215.082031 306.074219 215.367188 305.921875 215.636719 305.742188 C 215.90625 305.5625 216.15625 305.355469 216.386719 305.125 C 216.617188 304.894531 216.820312 304.644531 217.003906 304.375 C 217.183594 304.105469 217.335938 303.820312 217.460938 303.519531 C 217.585938 303.21875 217.679688 302.90625 217.742188 302.589844 C 217.804688 302.269531 217.835938 301.949219 217.835938 301.621094 L 217.835938 207.46875 L 222.789062 207.46875 C 223.765625 207.46875 224.730469 207.375 225.6875 207.183594 C 226.644531 206.992188 227.574219 206.710938 228.472656 206.335938 C 229.375 205.964844 230.230469 205.507812 231.042969 204.964844 C 231.851562 204.421875 232.601562 203.804688 233.292969 203.113281 C 233.984375 202.425781 234.597656 201.671875 235.140625 200.863281 C 235.683594 200.050781 236.140625 199.195312 236.511719 198.292969 C 236.886719 197.390625 237.167969 196.460938 237.359375 195.503906 C 237.550781 194.546875 237.644531 193.578125 237.644531 192.601562 L 237.644531 162.871094 C 237.644531 146.46875 222.09375 133.136719 202.980469 133.136719 Z M 222.789062 197.558594 L 199.070312 197.558594 L 158.414062 179.472656 L 158.414062 178.332031 L 197.484375 182.644531 L 212.882812 182.644531 C 213.210938 182.644531 213.53125 182.609375 213.851562 182.546875 C 214.167969 182.484375 214.480469 182.390625 214.78125 182.265625 C 215.082031 182.140625 215.367188 181.988281 215.636719 181.808594 C 215.90625 181.625 216.15625 181.421875 216.386719 181.191406 C 216.617188 180.960938 216.820312 180.710938 217.003906 180.441406 C 217.183594 180.167969 217.335938 179.882812 217.460938 179.582031 C 217.585938 179.28125 217.679688 178.972656 217.742188 178.652344 C 217.804688 178.335938 217.835938 178.011719 217.835938 177.6875 L 217.835938 167.824219 C 217.835938 167.5 217.804688 167.179688 217.742188 166.859375 C 217.679688 166.539062 217.585938 166.230469 217.460938 165.929688 C 217.335938 165.628906 217.183594 165.34375 217.003906 165.074219 C 216.820312 164.800781 216.617188 164.550781 216.386719 164.320312 C 216.15625 164.09375 215.90625 163.886719 215.636719 163.707031 C 215.367188 163.523438 215.082031 163.371094 214.78125 163.246094 C 214.480469 163.125 214.167969 163.027344 213.851562 162.964844 C 213.53125 162.902344 213.210938 162.871094 212.882812 162.871094 C 212.558594 162.871094 212.238281 162.902344 211.917969 162.964844 C 211.601562 163.027344 211.289062 163.125 210.988281 163.246094 C 210.6875 163.371094 210.402344 163.523438 210.132812 163.707031 C 209.863281 163.886719 209.613281 164.09375 209.382812 164.320312 C 209.152344 164.550781 208.949219 164.800781 208.765625 165.074219 C 208.585938 165.34375 208.433594 165.628906 208.308594 165.929688 C 208.183594 166.230469 208.089844 166.539062 208.027344 166.859375 C 207.964844 167.179688 207.933594 167.5 207.933594 167.824219 L 207.933594 172.78125 L 198.324219 172.78125 L 158.414062 168.371094 L 158.414062 167.824219 C 158.414062 167.5 158.382812 167.179688 158.320312 166.859375 C 158.253906 166.539062 158.160156 166.230469 158.035156 165.929688 C 157.914062 165.628906 157.757812 165.34375 157.578125 165.074219 C 157.398438 164.800781 157.191406 164.550781 156.964844 164.320312 C 156.734375 164.09375 156.484375 163.886719 156.210938 163.707031 C 155.941406 163.523438 155.65625 163.371094 155.355469 163.246094 C 155.054688 163.125 154.746094 163.027344 154.425781 162.964844 C 154.109375 162.902344 153.785156 162.871094 153.460938 162.871094 C 153.136719 162.871094 152.816406 162.902344 152.496094 162.964844 C 152.175781 163.027344 151.867188 163.125 151.566406 163.246094 C 151.265625 163.371094 150.980469 163.523438 150.710938 163.707031 C 150.441406 163.886719 150.191406 164.09375 149.960938 164.320312 C 149.730469 164.550781 149.523438 164.800781 149.34375 165.074219 C 149.164062 165.34375 149.011719 165.628906 148.886719 165.929688 C 148.761719 166.230469 148.667969 166.539062 148.605469 166.859375 C 148.542969 167.179688 148.507812 167.5 148.507812 167.824219 L 148.507812 182.691406 C 148.488281 182.90625 148.488281 183.121094 148.507812 183.335938 C 148.433594 183.734375 148.433594 184.128906 148.507812 184.527344 C 148.636719 184.828125 148.800781 185.109375 149.003906 185.367188 C 149.140625 185.636719 149.304688 185.882812 149.5 186.113281 C 149.804688 186.421875 150.148438 186.667969 150.539062 186.855469 C 150.539062 186.855469 150.835938 187.152344 151.035156 187.203125 L 174.707031 197.558594 L 143.558594 197.558594 C 143.234375 197.558594 142.910156 197.527344 142.589844 197.464844 C 142.273438 197.398438 141.964844 197.304688 141.664062 197.179688 C 141.363281 197.058594 141.078125 196.902344 140.808594 196.722656 C 140.535156 196.542969 140.285156 196.335938 140.054688 196.105469 C 139.828125 195.875 139.621094 195.625 139.441406 195.355469 C 139.261719 195.085938 139.105469 194.800781 138.984375 194.5 C 138.859375 194.199219 138.765625 193.890625 138.699219 193.570312 C 138.636719 193.25 138.605469 192.929688 138.605469 192.601562 L 138.605469 162.871094 C 138.605469 151.917969 149.699219 143.050781 163.367188 143.050781 L 202.980469 143.050781 C 216.648438 143.050781 227.742188 151.917969 227.742188 162.871094 L 227.742188 192.601562 C 227.742188 192.929688 227.707031 193.25 227.644531 193.570312 C 227.582031 193.890625 227.488281 194.199219 227.363281 194.5 C 227.238281 194.800781 227.085938 195.085938 226.90625 195.355469 C 226.726562 195.625 226.519531 195.875 226.289062 196.105469 C 226.058594 196.335938 225.808594 196.542969 225.539062 196.722656 C 225.269531 196.902344 224.984375 197.058594 224.683594 197.179688 C 224.382812 197.304688 224.074219 197.398438 223.753906 197.464844 C 223.4375 197.527344 223.113281 197.558594 222.789062 197.558594 Z M 222.789062 197.558594 " fill-opacity="1" fill-rule="nonzero"/><path fill="#000000" d="M 178.222656 237.203125 L 178.222656 301.621094 C 178.222656 301.949219 178.253906 302.269531 178.316406 302.589844 C 178.378906 302.90625 178.472656 303.21875 178.597656 303.519531 C 178.722656 303.820312 178.875 304.105469 179.054688 304.375 C 179.238281 304.644531 179.441406 304.894531 179.671875 305.125 C 179.902344 305.355469 180.152344 305.5625 180.421875 305.742188 C 180.691406 305.921875 180.976562 306.074219 181.277344 306.199219 C 181.578125 306.324219 181.886719 306.417969 182.207031 306.480469 C 182.527344 306.546875 182.847656 306.578125 183.171875 306.578125 C 183.5 306.578125 183.820312 306.546875 184.140625 306.480469 C 184.457031 306.417969 184.769531 306.324219 185.066406 306.199219 C 185.367188 306.074219 185.652344 305.921875 185.925781 305.742188 C 186.195312 305.5625 186.445312 305.355469 186.675781 305.125 C 186.90625 304.894531 187.109375 304.644531 187.289062 304.375 C 187.472656 304.105469 187.625 303.820312 187.75 303.519531 C 187.871094 303.21875 187.964844 302.90625 188.03125 302.589844 C 188.09375 302.269531 188.125 301.949219 188.125 301.621094 L 188.125 237.203125 C 188.125 236.875 188.09375 236.554688 188.03125 236.234375 C 187.964844 235.914062 187.871094 235.605469 187.75 235.304688 C 187.625 235.003906 187.472656 234.71875 187.289062 234.449219 C 187.109375 234.179688 186.90625 233.929688 186.675781 233.699219 C 186.445312 233.46875 186.195312 233.261719 185.925781 233.082031 C 185.652344 232.902344 185.367188 232.75 185.066406 232.625 C 184.769531 232.5 184.457031 232.40625 184.140625 232.339844 C 183.820312 232.277344 183.5 232.246094 183.171875 232.246094 C 182.847656 232.246094 182.527344 232.277344 182.207031 232.339844 C 181.886719 232.40625 181.578125 232.5 181.277344 232.625 C 180.976562 232.75 180.691406 232.902344 180.421875 233.082031 C 180.152344 233.261719 179.902344 233.46875 179.671875 233.699219 C 179.441406 233.929688 179.238281 234.179688 179.054688 234.449219 C 178.875 234.71875 178.722656 235.003906 178.597656 235.304688 C 178.472656 235.605469 178.378906 235.914062 178.316406 236.234375 C 178.253906 236.554688 178.222656 236.875 178.222656 237.203125 Z M 178.222656 237.203125 " fill-opacity="1" fill-rule="nonzero"/><path fill="#000000" d="M 69.277344 148.003906 C 70.007812 148.003906 70.738281 147.96875 71.464844 147.898438 C 72.1875 147.824219 72.910156 147.71875 73.625 147.574219 C 74.34375 147.433594 75.050781 147.257812 75.746094 147.042969 C 76.445312 146.832031 77.132812 146.585938 77.804688 146.308594 C 78.480469 146.027344 79.140625 145.714844 79.785156 145.371094 C 80.425781 145.027344 81.050781 144.652344 81.660156 144.246094 C 82.265625 143.839844 82.851562 143.40625 83.414062 142.941406 C 83.980469 142.480469 84.519531 141.988281 85.035156 141.472656 C 85.550781 140.957031 86.042969 140.414062 86.503906 139.851562 C 86.96875 139.285156 87.402344 138.699219 87.808594 138.09375 C 88.210938 137.488281 88.585938 136.859375 88.929688 136.214844 C 89.277344 135.574219 89.585938 134.914062 89.867188 134.238281 C 90.144531 133.5625 90.390625 132.875 90.601562 132.179688 C 90.816406 131.480469 90.992188 130.773438 91.132812 130.054688 C 91.277344 129.339844 91.382812 128.617188 91.457031 127.890625 C 91.527344 127.164062 91.5625 126.433594 91.5625 125.703125 C 91.5625 124.972656 91.527344 124.246094 91.457031 123.519531 C 91.382812 122.792969 91.277344 122.070312 91.132812 121.355469 C 90.992188 120.636719 90.816406 119.929688 90.601562 119.230469 C 90.390625 118.53125 90.144531 117.847656 89.867188 117.171875 C 89.585938 116.496094 89.277344 115.835938 88.929688 115.191406 C 88.585938 114.550781 88.210938 113.921875 87.808594 113.316406 C 87.402344 112.707031 86.96875 112.121094 86.503906 111.558594 C 86.042969 110.992188 85.550781 110.453125 85.035156 109.9375 C 84.519531 109.421875 83.980469 108.929688 83.414062 108.46875 C 82.851562 108.003906 82.265625 107.570312 81.660156 107.164062 C 81.050781 106.757812 80.425781 106.382812 79.785156 106.039062 C 79.140625 105.695312 78.480469 105.382812 77.804688 105.101562 C 77.132812 104.824219 76.445312 104.578125 75.746094 104.367188 C 75.050781 104.152344 74.34375 103.976562 73.625 103.832031 C 72.910156 103.691406 72.1875 103.585938 71.464844 103.511719 C 70.738281 103.441406 70.007812 103.40625 69.277344 103.40625 C 68.550781 103.40625 67.820312 103.441406 67.09375 103.511719 C 66.367188 103.585938 65.648438 103.691406 64.929688 103.832031 C 64.214844 103.976562 63.507812 104.152344 62.808594 104.367188 C 62.113281 104.578125 61.425781 104.824219 60.75 105.101562 C 60.078125 105.382812 59.417969 105.695312 58.773438 106.039062 C 58.132812 106.382812 57.503906 106.757812 56.898438 107.164062 C 56.292969 107.570312 55.707031 108.003906 55.140625 108.46875 C 54.578125 108.929688 54.039062 109.421875 53.523438 109.9375 C 53.007812 110.453125 52.515625 110.992188 52.054688 111.558594 C 51.589844 112.121094 51.15625 112.707031 50.75 113.316406 C 50.34375 113.921875 49.96875 114.550781 49.625 115.191406 C 49.28125 115.835938 48.972656 116.496094 48.691406 117.171875 C 48.414062 117.847656 48.167969 118.53125 47.953125 119.230469 C 47.742188 119.929688 47.566406 120.636719 47.421875 121.355469 C 47.28125 122.070312 47.175781 122.792969 47.101562 123.519531 C 47.03125 124.246094 46.996094 124.972656 46.996094 125.703125 C 46.996094 126.433594 47.035156 127.164062 47.105469 127.890625 C 47.179688 128.617188 47.289062 129.335938 47.433594 130.050781 C 47.574219 130.765625 47.753906 131.472656 47.964844 132.171875 C 48.179688 132.871094 48.425781 133.558594 48.703125 134.230469 C 48.984375 134.90625 49.296875 135.5625 49.640625 136.207031 C 49.984375 136.851562 50.359375 137.476562 50.765625 138.082031 C 51.171875 138.6875 51.605469 139.273438 52.070312 139.839844 C 52.53125 140.402344 53.019531 140.941406 53.535156 141.457031 C 54.050781 141.972656 54.59375 142.464844 55.15625 142.925781 C 55.71875 143.390625 56.304688 143.824219 56.910156 144.230469 C 57.515625 144.636719 58.140625 145.011719 58.785156 145.355469 C 59.425781 145.703125 60.085938 146.011719 60.757812 146.292969 C 61.433594 146.574219 62.117188 146.820312 62.816406 147.03125 C 63.511719 147.246094 64.21875 147.425781 64.933594 147.566406 C 65.648438 147.710938 66.371094 147.820312 67.097656 147.890625 C 67.820312 147.964844 68.550781 148.003906 69.277344 148.003906 Z M 69.277344 113.316406 C 70.09375 113.316406 70.898438 113.394531 71.695312 113.554688 C 72.492188 113.714844 73.265625 113.949219 74.015625 114.257812 C 74.765625 114.570312 75.480469 114.953125 76.15625 115.402344 C 76.832031 115.855469 77.457031 116.371094 78.03125 116.945312 C 78.609375 117.519531 79.121094 118.144531 79.574219 118.820312 C 80.023438 119.5 80.40625 120.210938 80.714844 120.964844 C 81.027344 121.714844 81.261719 122.488281 81.421875 123.289062 C 81.578125 124.085938 81.660156 124.890625 81.660156 125.703125 C 81.660156 126.519531 81.578125 127.324219 81.421875 128.121094 C 81.261719 128.917969 81.027344 129.695312 80.714844 130.445312 C 80.40625 131.199219 80.023438 131.910156 79.574219 132.585938 C 79.121094 133.265625 78.609375 133.890625 78.03125 134.464844 C 77.457031 135.039062 76.832031 135.554688 76.15625 136.003906 C 75.480469 136.457031 74.765625 136.839844 74.015625 137.148438 C 73.265625 137.460938 72.492188 137.695312 71.695312 137.855469 C 70.898438 138.015625 70.09375 138.09375 69.277344 138.09375 C 68.464844 138.09375 67.660156 138.015625 66.863281 137.855469 C 66.066406 137.695312 65.292969 137.460938 64.542969 137.148438 C 63.789062 136.839844 63.078125 136.457031 62.402344 136.003906 C 61.726562 135.554688 61.101562 135.039062 60.523438 134.464844 C 59.949219 133.890625 59.4375 133.265625 58.984375 132.585938 C 58.535156 131.910156 58.152344 131.199219 57.839844 130.445312 C 57.53125 129.695312 57.296875 128.917969 57.136719 128.121094 C 56.976562 127.324219 56.898438 126.519531 56.898438 125.703125 C 56.898438 124.890625 56.976562 124.085938 57.136719 123.289062 C 57.296875 122.488281 57.53125 121.714844 57.839844 120.964844 C 58.152344 120.210938 58.535156 119.5 58.984375 118.820312 C 59.4375 118.144531 59.949219 117.519531 60.523438 116.945312 C 61.101562 116.371094 61.726562 115.855469 62.402344 115.402344 C 63.078125 114.953125 63.789062 114.570312 64.542969 114.257812 C 65.292969 113.949219 66.066406 113.714844 66.863281 113.554688 C 67.660156 113.394531 68.464844 113.316406 69.277344 113.316406 Z M 69.277344 113.316406 " fill-opacity="1" fill-rule="nonzero"/><path fill="#000000" d="M 44.519531 231.75 L 44.519531 301.621094 C 44.519531 301.949219 44.550781 302.269531 44.613281 302.589844 C 44.679688 302.90625 44.773438 303.21875 44.894531 303.519531 C 45.019531 303.820312 45.171875 304.105469 45.355469 304.375 C 45.535156 304.644531 45.738281 304.894531 45.96875 305.125 C 46.199219 305.355469 46.449219 305.5625 46.71875 305.742188 C 46.992188 305.921875 47.277344 306.074219 47.578125 306.199219 C 47.875 306.324219 48.1875 306.417969 48.503906 306.480469 C 48.824219 306.546875 49.144531 306.578125 49.472656 306.578125 C 49.796875 306.578125 50.117188 306.546875 50.4375 306.480469 C 50.757812 306.417969 51.066406 306.324219 51.367188 306.199219 C 51.667969 306.074219 51.953125 305.921875 52.222656 305.742188 C 52.492188 305.5625 52.742188 305.355469 52.972656 305.125 C 53.203125 304.894531 53.40625 304.644531 53.589844 304.375 C 53.769531 304.105469 53.921875 303.820312 54.046875 303.519531 C 54.171875 303.21875 54.265625 302.90625 54.328125 302.589844 C 54.390625 302.269531 54.421875 301.949219 54.421875 301.621094 L 54.421875 182.691406 C 54.421875 182.367188 54.390625 182.042969 54.328125 181.726562 C 54.265625 181.40625 54.171875 181.097656 54.046875 180.796875 C 53.921875 180.496094 53.769531 180.210938 53.589844 179.9375 C 53.40625 179.667969 53.203125 179.417969 52.972656 179.1875 C 52.742188 178.957031 52.492188 178.753906 52.222656 178.570312 C 51.953125 178.390625 51.667969 178.238281 51.367188 178.113281 C 51.066406 177.988281 50.757812 177.894531 50.4375 177.832031 C 50.117188 177.769531 49.796875 177.738281 49.472656 177.738281 C 49.144531 177.738281 48.824219 177.769531 48.503906 177.832031 C 48.1875 177.894531 47.875 177.988281 47.578125 178.113281 C 47.277344 178.238281 46.992188 178.390625 46.71875 178.570312 C 46.449219 178.753906 46.199219 178.957031 45.96875 179.1875 C 45.738281 179.417969 45.535156 179.667969 45.355469 179.9375 C 45.171875 180.210938 45.019531 180.496094 44.894531 180.796875 C 44.773438 181.097656 44.679688 181.40625 44.613281 181.726562 C 44.550781 182.042969 44.519531 182.367188 44.519531 182.691406 L 44.519531 221.542969 C 41.152344 220.253906 39.566406 217.378906 39.566406 212.425781 L 39.566406 177.738281 C 39.566406 176.761719 39.664062 175.792969 39.851562 174.835938 C 40.042969 173.878906 40.324219 172.949219 40.699219 172.046875 C 41.070312 171.144531 41.527344 170.289062 42.070312 169.476562 C 42.613281 168.664062 43.230469 167.914062 43.917969 167.226562 C 44.609375 166.535156 45.359375 165.917969 46.167969 165.375 C 46.980469 164.832031 47.835938 164.375 48.738281 164.003906 C 49.640625 163.628906 50.566406 163.347656 51.523438 163.15625 C 52.480469 162.964844 53.449219 162.871094 54.421875 162.871094 L 64.328125 162.871094 C 64.652344 162.871094 64.972656 162.839844 65.292969 162.773438 C 65.613281 162.710938 65.921875 162.617188 66.222656 162.492188 C 66.523438 162.367188 66.808594 162.214844 67.078125 162.035156 C 67.347656 161.855469 67.597656 161.648438 67.828125 161.417969 C 68.058594 161.1875 68.265625 160.9375 68.445312 160.667969 C 68.625 160.398438 68.777344 160.113281 68.902344 159.8125 C 69.027344 159.511719 69.121094 159.199219 69.183594 158.882812 C 69.246094 158.5625 69.277344 158.242188 69.277344 157.914062 C 69.277344 157.589844 69.246094 157.265625 69.183594 156.949219 C 69.121094 156.628906 69.027344 156.320312 68.902344 156.019531 C 68.777344 155.71875 68.625 155.433594 68.445312 155.160156 C 68.265625 154.890625 68.058594 154.640625 67.828125 154.410156 C 67.597656 154.179688 67.347656 153.976562 67.078125 153.792969 C 66.808594 153.613281 66.523438 153.460938 66.222656 153.335938 C 65.921875 153.210938 65.613281 153.117188 65.292969 153.054688 C 64.972656 152.992188 64.652344 152.960938 64.328125 152.960938 L 54.421875 152.960938 C 53.613281 152.960938 52.804688 153 51.996094 153.078125 C 51.1875 153.160156 50.386719 153.277344 49.59375 153.4375 C 48.796875 153.59375 48.011719 153.789062 47.234375 154.027344 C 46.460938 154.261719 45.699219 154.535156 44.949219 154.847656 C 44.199219 155.15625 43.464844 155.503906 42.75 155.886719 C 42.035156 156.269531 41.339844 156.683594 40.667969 157.136719 C 39.992188 157.585938 39.34375 158.070312 38.714844 158.582031 C 38.089844 159.097656 37.488281 159.644531 36.914062 160.214844 C 36.34375 160.789062 35.796875 161.390625 35.285156 162.019531 C 34.769531 162.644531 34.285156 163.296875 33.835938 163.972656 C 33.386719 164.644531 32.96875 165.339844 32.585938 166.058594 C 32.203125 166.773438 31.859375 167.503906 31.546875 168.253906 C 31.238281 169.003906 30.964844 169.769531 30.730469 170.542969 C 30.496094 171.320312 30.296875 172.105469 30.140625 172.902344 C 29.980469 173.699219 29.863281 174.5 29.78125 175.308594 C 29.703125 176.117188 29.664062 176.925781 29.664062 177.738281 L 29.664062 212.425781 C 29.550781 213.542969 29.546875 214.660156 29.648438 215.777344 C 29.746094 216.894531 29.953125 217.996094 30.257812 219.074219 C 30.566406 220.152344 30.972656 221.195312 31.480469 222.195312 C 31.984375 223.199219 32.578125 224.144531 33.261719 225.035156 C 33.945312 225.925781 34.707031 226.742188 35.546875 227.488281 C 36.386719 228.234375 37.285156 228.894531 38.25 229.46875 C 39.214844 230.042969 40.222656 230.523438 41.277344 230.90625 C 42.332031 231.289062 43.410156 231.570312 44.519531 231.75 Z M 44.519531 231.75 " fill-opacity="1" fill-rule="nonzero"/><path fill="#000000" d="M 74.230469 301.621094 L 74.230469 237.203125 C 74.230469 236.875 74.199219 236.554688 74.136719 236.234375 C 74.074219 235.914062 73.976562 235.605469 73.855469 235.304688 C 73.730469 235.003906 73.578125 234.71875 73.394531 234.449219 C 73.214844 234.179688 73.011719 233.929688 72.78125 233.699219 C 72.550781 233.46875 72.300781 233.261719 72.03125 233.082031 C 71.757812 232.902344 71.472656 232.75 71.175781 232.625 C 70.875 232.5 70.5625 232.40625 70.246094 232.339844 C 69.925781 232.277344 69.605469 232.246094 69.277344 232.246094 C 68.953125 232.246094 68.632812 232.277344 68.3125 232.339844 C 67.992188 232.40625 67.683594 232.5 67.382812 232.625 C 67.082031 232.75 66.796875 232.902344 66.527344 233.082031 C 66.257812 233.261719 66.007812 233.46875 65.777344 233.699219 C 65.546875 233.929688 65.34375 234.179688 65.160156 234.449219 C 64.980469 234.71875 64.828125 235.003906 64.703125 235.304688 C 64.578125 235.605469 64.484375 235.914062 64.421875 236.234375 C 64.359375 236.554688 64.328125 236.875 64.328125 237.203125 L 64.328125 301.621094 C 64.328125 301.949219 64.359375 302.269531 64.421875 302.589844 C 64.484375 302.90625 64.578125 303.21875 64.703125 303.519531 C 64.828125 303.820312 64.980469 304.105469 65.160156 304.375 C 65.34375 304.644531 65.546875 304.894531 65.777344 305.125 C 66.007812 305.355469 66.257812 305.5625 66.527344 305.742188 C 66.796875 305.921875 67.082031 306.074219 67.382812 306.199219 C 67.683594 306.324219 67.992188 306.417969 68.3125 306.480469 C 68.632812 306.546875 68.953125 306.578125 69.277344 306.578125 C 69.605469 306.578125 69.925781 306.546875 70.246094 306.480469 C 70.5625 306.417969 70.875 306.324219 71.175781 306.199219 C 71.472656 306.074219 71.757812 305.921875 72.03125 305.742188 C 72.300781 305.5625 72.550781 305.355469 72.78125 305.125 C 73.011719 304.894531 73.214844 304.644531 73.394531 304.375 C 73.578125 304.105469 73.730469 303.820312 73.855469 303.519531 C 73.976562 303.21875 74.074219 302.90625 74.136719 302.589844 C 74.199219 302.269531 74.230469 301.949219 74.230469 301.621094 Z M 74.230469 301.621094 " fill-opacity="1" fill-rule="nonzero"/><path fill="#000000" d="M 242.597656 138.09375 C 243.40625 138.09375 244.214844 138.054688 245.023438 137.972656 C 245.832031 137.894531 246.632812 137.777344 247.425781 137.617188 C 248.222656 137.460938 249.007812 137.261719 249.785156 137.027344 C 250.558594 136.789062 251.320312 136.519531 252.070312 136.207031 C 252.820312 135.898438 253.550781 135.550781 254.269531 135.167969 C 254.984375 134.785156 255.675781 134.367188 256.351562 133.917969 C 257.027344 133.46875 257.675781 132.984375 258.304688 132.46875 C 258.929688 131.953125 259.53125 131.410156 260.105469 130.835938 C 260.675781 130.261719 261.222656 129.660156 261.734375 129.035156 C 262.25 128.40625 262.734375 127.757812 263.183594 127.082031 C 263.632812 126.40625 264.050781 125.710938 264.433594 124.996094 C 264.816406 124.28125 265.160156 123.546875 265.472656 122.796875 C 265.78125 122.046875 266.054688 121.285156 266.289062 120.507812 C 266.523438 119.730469 266.722656 118.945312 266.878906 118.148438 C 267.039062 117.355469 267.15625 116.550781 267.238281 115.746094 C 267.316406 114.9375 267.355469 114.128906 267.355469 113.316406 C 267.355469 112.503906 267.316406 111.695312 267.238281 110.886719 C 267.15625 110.082031 267.039062 109.277344 266.878906 108.484375 C 266.722656 107.6875 266.523438 106.902344 266.289062 106.125 C 266.054688 105.347656 265.78125 104.585938 265.472656 103.835938 C 265.160156 103.085938 264.816406 102.351562 264.433594 101.636719 C 264.050781 100.921875 263.632812 100.226562 263.183594 99.550781 C 262.734375 98.875 262.25 98.226562 261.734375 97.597656 C 261.222656 96.96875 260.675781 96.371094 260.105469 95.796875 C 259.53125 95.222656 258.929688 94.679688 258.304688 94.164062 C 257.675781 93.648438 257.027344 93.164062 256.351562 92.714844 C 255.675781 92.265625 254.984375 91.847656 254.269531 91.464844 C 253.550781 91.082031 252.820312 90.734375 252.070312 90.425781 C 251.320312 90.113281 250.558594 89.839844 249.785156 89.605469 C 249.007812 89.371094 248.222656 89.171875 247.425781 89.015625 C 246.632812 88.855469 245.832031 88.738281 245.023438 88.660156 C 244.214844 88.578125 243.40625 88.539062 242.597656 88.539062 C 241.785156 88.539062 240.976562 88.578125 240.167969 88.660156 C 239.363281 88.738281 238.5625 88.855469 237.765625 89.015625 C 236.96875 89.171875 236.183594 89.371094 235.410156 89.605469 C 234.632812 89.839844 233.871094 90.113281 233.121094 90.425781 C 232.371094 90.734375 231.640625 91.082031 230.925781 91.464844 C 230.210938 91.847656 229.515625 92.265625 228.839844 92.714844 C 228.167969 93.164062 227.515625 93.648438 226.890625 94.164062 C 226.261719 94.679688 225.660156 95.222656 225.089844 95.796875 C 224.515625 96.371094 223.972656 96.96875 223.457031 97.597656 C 222.941406 98.226562 222.460938 98.875 222.007812 99.550781 C 221.558594 100.226562 221.140625 100.921875 220.761719 101.636719 C 220.378906 102.351562 220.03125 103.085938 219.722656 103.835938 C 219.410156 104.585938 219.136719 105.347656 218.902344 106.125 C 218.667969 106.902344 218.46875 107.6875 218.3125 108.484375 C 218.152344 109.277344 218.035156 110.082031 217.957031 110.886719 C 217.875 111.695312 217.835938 112.503906 217.835938 113.316406 C 217.835938 114.128906 217.875 114.9375 217.957031 115.746094 C 218.035156 116.550781 218.152344 117.355469 218.3125 118.148438 C 218.46875 118.945312 218.667969 119.730469 218.902344 120.507812 C 219.136719 121.285156 219.410156 122.046875 219.722656 122.796875 C 220.03125 123.546875 220.378906 124.28125 220.761719 124.996094 C 221.140625 125.710938 221.558594 126.40625 222.007812 127.082031 C 222.460938 127.757812 222.941406 128.40625 223.457031 129.035156 C 223.972656 129.660156 224.515625 130.261719 225.089844 130.835938 C 225.660156 131.410156 226.261719 131.953125 226.890625 132.46875 C 227.515625 132.984375 228.167969 133.46875 228.839844 133.917969 C 229.515625 134.367188 230.210938 134.785156 230.925781 135.167969 C 231.640625 135.550781 232.371094 135.898438 233.121094 136.207031 C 233.871094 136.519531 234.632812 136.789062 235.410156 137.027344 C 236.183594 137.261719 236.96875 137.460938 237.765625 137.617188 C 238.5625 137.777344 239.363281 137.894531 240.167969 137.972656 C 240.976562 138.054688 241.785156 138.09375 242.597656 138.09375 Z M 242.597656 98.449219 C 243.570312 98.449219 244.539062 98.546875 245.496094 98.734375 C 246.449219 98.925781 247.378906 99.207031 248.28125 99.582031 C 249.183594 99.957031 250.039062 100.414062 250.851562 100.957031 C 251.660156 101.496094 252.410156 102.113281 253.101562 102.804688 C 253.789062 103.496094 254.40625 104.246094 254.949219 105.058594 C 255.492188 105.867188 255.949219 106.726562 256.320312 107.628906 C 256.695312 108.527344 256.976562 109.457031 257.167969 110.417969 C 257.355469 111.375 257.453125 112.339844 257.453125 113.316406 C 257.453125 114.292969 257.355469 115.257812 257.167969 116.214844 C 256.976562 117.175781 256.695312 118.105469 256.320312 119.003906 C 255.949219 119.90625 255.492188 120.765625 254.949219 121.574219 C 254.40625 122.386719 253.789062 123.136719 253.101562 123.828125 C 252.410156 124.519531 251.660156 125.136719 250.851562 125.675781 C 250.039062 126.21875 249.183594 126.675781 248.28125 127.050781 C 247.378906 127.425781 246.449219 127.707031 245.496094 127.898438 C 244.539062 128.085938 243.570312 128.183594 242.597656 128.183594 C 241.621094 128.183594 240.65625 128.085938 239.699219 127.898438 C 238.742188 127.707031 237.8125 127.425781 236.910156 127.050781 C 236.011719 126.675781 235.152344 126.21875 234.34375 125.675781 C 233.53125 125.136719 232.78125 124.519531 232.089844 123.828125 C 231.402344 123.136719 230.785156 122.386719 230.242188 121.574219 C 229.703125 120.765625 229.246094 119.90625 228.871094 119.003906 C 228.496094 118.105469 228.214844 117.175781 228.027344 116.214844 C 227.835938 115.257812 227.742188 114.292969 227.742188 113.316406 C 227.742188 112.339844 227.835938 111.375 228.027344 110.417969 C 228.214844 109.457031 228.496094 108.527344 228.871094 107.628906 C 229.246094 106.726562 229.703125 105.867188 230.242188 105.058594 C 230.785156 104.246094 231.402344 103.496094 232.089844 102.804688 C 232.78125 102.113281 233.53125 101.496094 234.34375 100.957031 C 235.152344 100.414062 236.011719 99.957031 236.910156 99.582031 C 237.8125 99.207031 238.742188 98.925781 239.699219 98.734375 C 240.65625 98.546875 241.621094 98.449219 242.597656 98.449219 Z M 242.597656 98.449219 " fill-opacity="1" fill-rule="nonzero"/><path fill="#000000" d="M 267.355469 167.824219 C 267.03125 167.824219 266.707031 167.859375 266.390625 167.921875 C 266.070312 167.984375 265.761719 168.078125 265.460938 168.203125 C 265.160156 168.328125 264.875 168.480469 264.605469 168.660156 C 264.335938 168.84375 264.085938 169.046875 263.855469 169.277344 C 263.625 169.507812 263.417969 169.757812 263.238281 170.027344 C 263.058594 170.296875 262.90625 170.585938 262.78125 170.886719 C 262.65625 171.1875 262.5625 171.496094 262.5 171.816406 C 262.4375 172.132812 262.402344 172.457031 262.402344 172.78125 L 262.402344 301.621094 C 262.402344 301.949219 262.4375 302.269531 262.5 302.589844 C 262.5625 302.90625 262.65625 303.21875 262.78125 303.519531 C 262.90625 303.820312 263.058594 304.105469 263.238281 304.375 C 263.417969 304.644531 263.625 304.894531 263.855469 305.125 C 264.085938 305.355469 264.335938 305.5625 264.605469 305.742188 C 264.875 305.921875 265.160156 306.074219 265.460938 306.199219 C 265.761719 306.324219 266.070312 306.417969 266.390625 306.480469 C 266.707031 306.546875 267.03125 306.578125 267.355469 306.578125 C 267.679688 306.578125 268.003906 306.546875 268.320312 306.480469 C 268.640625 306.417969 268.949219 306.324219 269.25 306.199219 C 269.550781 306.074219 269.835938 305.921875 270.105469 305.742188 C 270.378906 305.5625 270.628906 305.355469 270.855469 305.125 C 271.085938 304.894531 271.292969 304.644531 271.472656 304.375 C 271.652344 304.105469 271.804688 303.820312 271.929688 303.519531 C 272.054688 303.21875 272.148438 302.90625 272.210938 302.589844 C 272.277344 302.269531 272.308594 301.949219 272.308594 301.621094 L 272.308594 236.804688 C 283.597656 234.972656 292.117188 226.894531 292.117188 217.378906 L 292.117188 172.78125 C 292.117188 156.378906 276.566406 143.050781 257.453125 143.050781 L 247.546875 143.050781 C 247.222656 143.050781 246.902344 143.082031 246.582031 143.144531 C 246.261719 143.207031 245.953125 143.300781 245.652344 143.425781 C 245.351562 143.550781 245.066406 143.703125 244.796875 143.882812 C 244.527344 144.066406 244.277344 144.269531 244.046875 144.5 C 243.816406 144.730469 243.613281 144.980469 243.429688 145.25 C 243.25 145.523438 243.097656 145.808594 242.972656 146.109375 C 242.847656 146.410156 242.753906 146.71875 242.691406 147.039062 C 242.628906 147.355469 242.597656 147.679688 242.597656 148.003906 C 242.597656 148.328125 242.628906 148.652344 242.691406 148.972656 C 242.753906 149.289062 242.847656 149.601562 242.972656 149.902344 C 243.097656 150.203125 243.25 150.488281 243.429688 150.757812 C 243.613281 151.027344 243.816406 151.277344 244.046875 151.507812 C 244.277344 151.738281 244.527344 151.945312 244.796875 152.125 C 245.066406 152.304688 245.351562 152.457031 245.652344 152.582031 C 245.953125 152.707031 246.261719 152.800781 246.582031 152.863281 C 246.902344 152.929688 247.222656 152.960938 247.546875 152.960938 L 257.453125 152.960938 C 271.121094 152.960938 282.210938 161.828125 282.210938 172.78125 L 282.210938 217.378906 C 282.210938 221.59375 278.003906 225.257812 272.308594 226.648438 L 272.308594 172.78125 C 272.308594 172.457031 272.277344 172.132812 272.210938 171.816406 C 272.148438 171.496094 272.054688 171.1875 271.929688 170.886719 C 271.804688 170.585938 271.652344 170.296875 271.472656 170.027344 C 271.292969 169.757812 271.085938 169.507812 270.855469 169.277344 C 270.628906 169.046875 270.378906 168.84375 270.105469 168.660156 C 269.835938 168.480469 269.550781 168.328125 269.25 168.203125 C 268.949219 168.078125 268.640625 167.984375 268.320312 167.921875 C 268.003906 167.859375 267.679688 167.824219 267.355469 167.824219 Z M 267.355469 167.824219 " fill-opacity="1" fill-rule="nonzero"/><path fill="#000000" d="M 237.644531 237.203125 L 237.644531 301.621094 C 237.644531 301.949219 237.675781 302.269531 237.738281 302.589844 C 237.804688 302.90625 237.898438 303.21875 238.019531 303.519531 C 238.144531 303.820312 238.296875 304.105469 238.480469 304.375 C 238.660156 304.644531 238.863281 304.894531 239.09375 305.125 C 239.324219 305.355469 239.574219 305.5625 239.84375 305.742188 C 240.117188 305.921875 240.402344 306.074219 240.703125 306.199219 C 241 306.324219 241.3125 306.417969 241.628906 306.480469 C 241.949219 306.546875 242.269531 306.578125 242.597656 306.578125 C 242.921875 306.578125 243.242188 306.546875 243.5625 306.480469 C 243.882812 306.417969 244.191406 306.324219 244.492188 306.199219 C 244.792969 306.074219 245.078125 305.921875 245.347656 305.742188 C 245.617188 305.5625 245.867188 305.355469 246.097656 305.125 C 246.328125 304.894531 246.53125 304.644531 246.714844 304.375 C 246.894531 304.105469 247.046875 303.820312 247.171875 303.519531 C 247.296875 303.21875 247.390625 302.90625 247.453125 302.589844 C 247.515625 302.269531 247.546875 301.949219 247.546875 301.621094 L 247.546875 237.203125 C 247.546875 236.875 247.515625 236.554688 247.453125 236.234375 C 247.390625 235.914062 247.296875 235.605469 247.171875 235.304688 C 247.046875 235.003906 246.894531 234.71875 246.714844 234.449219 C 246.53125 234.179688 246.328125 233.929688 246.097656 233.699219 C 245.867188 233.46875 245.617188 233.261719 245.347656 233.082031 C 245.078125 232.902344 244.792969 232.75 244.492188 232.625 C 244.191406 232.5 243.882812 232.40625 243.5625 232.339844 C 243.242188 232.277344 242.921875 232.246094 242.597656 232.246094 C 242.269531 232.246094 241.949219 232.277344 241.628906 232.339844 C 241.3125 232.40625 241 232.5 240.703125 232.625 C 240.402344 232.75 240.117188 232.902344 239.84375 233.082031 C 239.574219 233.261719 239.324219 233.46875 239.09375 233.699219 C 238.863281 233.929688 238.660156 234.179688 238.480469 234.449219 C 238.296875 234.71875 238.144531 235.003906 238.019531 235.304688 C 237.898438 235.605469 237.804688 235.914062 237.738281 236.234375 C 237.675781 236.554688 237.644531 236.875 237.644531 237.203125 Z M 237.644531 237.203125 " fill-opacity="1" fill-rule="nonzero"/><path fill="#000000" d="M 297.066406 148.003906 C 297.796875 148.003906 298.523438 147.96875 299.25 147.898438 C 299.976562 147.824219 300.699219 147.71875 301.414062 147.574219 C 302.128906 147.433594 302.835938 147.257812 303.535156 147.042969 C 304.234375 146.832031 304.921875 146.585938 305.59375 146.308594 C 306.269531 146.027344 306.929688 145.714844 307.570312 145.371094 C 308.214844 145.027344 308.839844 144.652344 309.449219 144.246094 C 310.054688 143.839844 310.640625 143.40625 311.203125 142.941406 C 311.769531 142.480469 312.308594 141.988281 312.824219 141.472656 C 313.339844 140.957031 313.828125 140.414062 314.292969 139.851562 C 314.757812 139.285156 315.191406 138.699219 315.59375 138.09375 C 316 137.488281 316.375 136.859375 316.71875 136.214844 C 317.0625 135.574219 317.375 134.914062 317.65625 134.238281 C 317.933594 133.5625 318.179688 132.875 318.390625 132.179688 C 318.601562 131.480469 318.78125 130.773438 318.921875 130.054688 C 319.066406 129.339844 319.171875 128.617188 319.242188 127.890625 C 319.316406 127.164062 319.351562 126.433594 319.351562 125.703125 C 319.351562 124.972656 319.316406 124.246094 319.242188 123.519531 C 319.171875 122.792969 319.066406 122.070312 318.921875 121.355469 C 318.78125 120.636719 318.601562 119.929688 318.390625 119.230469 C 318.179688 118.53125 317.933594 117.847656 317.65625 117.171875 C 317.375 116.496094 317.0625 115.835938 316.71875 115.191406 C 316.375 114.550781 316 113.921875 315.59375 113.316406 C 315.191406 112.707031 314.753906 112.121094 314.292969 111.558594 C 313.828125 110.992188 313.339844 110.453125 312.824219 109.9375 C 312.308594 109.421875 311.769531 108.929688 311.203125 108.46875 C 310.640625 108.003906 310.054688 107.570312 309.449219 107.164062 C 308.839844 106.757812 308.214844 106.382812 307.570312 106.039062 C 306.929688 105.695312 306.269531 105.382812 305.59375 105.101562 C 304.921875 104.824219 304.234375 104.578125 303.535156 104.367188 C 302.835938 104.152344 302.128906 103.976562 301.414062 103.832031 C 300.699219 103.691406 299.976562 103.585938 299.25 103.511719 C 298.523438 103.441406 297.796875 103.40625 297.066406 103.40625 C 296.335938 103.40625 295.609375 103.441406 294.882812 103.511719 C 294.15625 103.585938 293.4375 103.691406 292.71875 103.832031 C 292.003906 103.976562 291.296875 104.152344 290.597656 104.367188 C 289.902344 104.578125 289.214844 104.824219 288.539062 105.101562 C 287.867188 105.382812 287.207031 105.695312 286.5625 106.039062 C 285.917969 106.382812 285.292969 106.757812 284.6875 107.164062 C 284.082031 107.570312 283.496094 108.003906 282.929688 108.46875 C 282.367188 108.929688 281.828125 109.421875 281.308594 109.9375 C 280.792969 110.453125 280.304688 110.992188 279.84375 111.558594 C 279.378906 112.121094 278.945312 112.707031 278.539062 113.316406 C 278.132812 113.921875 277.757812 114.550781 277.414062 115.191406 C 277.070312 115.835938 276.757812 116.496094 276.480469 117.171875 C 276.199219 117.847656 275.957031 118.53125 275.742188 119.230469 C 275.53125 119.929688 275.355469 120.636719 275.210938 121.355469 C 275.070312 122.070312 274.960938 122.792969 274.890625 123.519531 C 274.820312 124.246094 274.785156 124.972656 274.785156 125.703125 C 274.785156 126.433594 274.824219 127.164062 274.894531 127.890625 C 274.96875 128.617188 275.078125 129.335938 275.21875 130.050781 C 275.363281 130.765625 275.542969 131.472656 275.753906 132.171875 C 275.96875 132.871094 276.214844 133.558594 276.492188 134.230469 C 276.773438 134.90625 277.085938 135.5625 277.429688 136.207031 C 277.773438 136.851562 278.148438 137.476562 278.554688 138.082031 C 278.960938 138.6875 279.394531 139.273438 279.855469 139.839844 C 280.320312 140.402344 280.808594 140.941406 281.324219 141.457031 C 281.839844 141.972656 282.378906 142.464844 282.945312 142.925781 C 283.507812 143.390625 284.09375 143.824219 284.699219 144.230469 C 285.304688 144.636719 285.929688 145.011719 286.574219 145.355469 C 287.214844 145.703125 287.875 146.011719 288.546875 146.292969 C 289.222656 146.574219 289.90625 146.820312 290.605469 147.03125 C 291.300781 147.246094 292.007812 147.425781 292.722656 147.566406 C 293.4375 147.710938 294.160156 147.820312 294.886719 147.890625 C 295.609375 147.964844 296.339844 148.003906 297.066406 148.003906 Z M 297.066406 113.316406 C 297.878906 113.316406 298.683594 113.394531 299.484375 113.554688 C 300.28125 113.714844 301.054688 113.949219 301.804688 114.257812 C 302.554688 114.570312 303.269531 114.953125 303.945312 115.402344 C 304.621094 115.855469 305.246094 116.371094 305.820312 116.945312 C 306.394531 117.519531 306.910156 118.144531 307.359375 118.820312 C 307.8125 119.5 308.195312 120.210938 308.503906 120.964844 C 308.816406 121.714844 309.050781 122.488281 309.210938 123.289062 C 309.367188 124.085938 309.445312 124.890625 309.445312 125.703125 C 309.445312 126.519531 309.367188 127.324219 309.210938 128.121094 C 309.050781 128.917969 308.816406 129.695312 308.503906 130.445312 C 308.195312 131.199219 307.8125 131.910156 307.359375 132.585938 C 306.910156 133.265625 306.394531 133.890625 305.820312 134.464844 C 305.246094 135.039062 304.621094 135.554688 303.945312 136.003906 C 303.269531 136.457031 302.554688 136.839844 301.804688 137.148438 C 301.054688 137.460938 300.28125 137.695312 299.484375 137.855469 C 298.683594 138.015625 297.878906 138.09375 297.066406 138.09375 C 296.253906 138.09375 295.449219 138.015625 294.652344 137.855469 C 293.855469 137.695312 293.082031 137.460938 292.328125 137.148438 C 291.578125 136.839844 290.867188 136.457031 290.191406 136.003906 C 289.511719 135.554688 288.886719 135.039062 288.3125 134.464844 C 287.738281 133.890625 287.226562 133.265625 286.773438 132.585938 C 286.324219 131.910156 285.941406 131.199219 285.628906 130.445312 C 285.320312 129.695312 285.085938 128.917969 284.925781 128.121094 C 284.765625 127.324219 284.6875 126.519531 284.6875 125.703125 C 284.6875 124.890625 284.765625 124.085938 284.925781 123.289062 C 285.085938 122.488281 285.320312 121.714844 285.628906 120.964844 C 285.941406 120.210938 286.324219 119.5 286.773438 118.820312 C 287.226562 118.144531 287.738281 117.519531 288.3125 116.945312 C 288.886719 116.371094 289.515625 115.855469 290.191406 115.402344 C 290.867188 114.953125 291.578125 114.570312 292.328125 114.257812 C 293.082031 113.949219 293.855469 113.714844 294.652344 113.554688 C 295.449219 113.394531 296.253906 113.316406 297.066406 113.316406 Z M 297.066406 113.316406 " fill-opacity="1" fill-rule="nonzero"/><path fill="#000000" d="M 297.066406 232.246094 C 296.742188 232.246094 296.421875 232.277344 296.101562 232.339844 C 295.78125 232.40625 295.472656 232.5 295.171875 232.625 C 294.871094 232.75 294.585938 232.902344 294.316406 233.082031 C 294.046875 233.261719 293.796875 233.46875 293.566406 233.699219 C 293.335938 233.929688 293.128906 234.179688 292.949219 234.449219 C 292.769531 234.71875 292.617188 235.003906 292.492188 235.304688 C 292.367188 235.605469 292.273438 235.914062 292.210938 236.234375 C 292.148438 236.554688 292.117188 236.875 292.117188 237.203125 L 292.117188 301.621094 C 292.117188 301.949219 292.148438 302.269531 292.210938 302.589844 C 292.273438 302.90625 292.367188 303.21875 292.492188 303.519531 C 292.617188 303.820312 292.769531 304.105469 292.949219 304.375 C 293.128906 304.644531 293.335938 304.894531 293.566406 305.125 C 293.796875 305.355469 294.046875 305.5625 294.316406 305.742188 C 294.585938 305.921875 294.871094 306.074219 295.171875 306.199219 C 295.472656 306.324219 295.78125 306.417969 296.101562 306.480469 C 296.421875 306.546875 296.742188 306.578125 297.066406 306.578125 C 297.390625 306.578125 297.714844 306.546875 298.035156 306.480469 C 298.351562 306.417969 298.660156 306.324219 298.960938 306.199219 C 299.261719 306.074219 299.546875 305.921875 299.820312 305.742188 C 300.089844 305.5625 300.339844 305.355469 300.570312 305.125 C 300.796875 304.894531 301.003906 304.644531 301.183594 304.375 C 301.367188 304.105469 301.519531 303.820312 301.640625 303.519531 C 301.765625 303.21875 301.859375 302.90625 301.925781 302.589844 C 301.988281 302.269531 302.019531 301.949219 302.019531 301.621094 L 302.019531 237.203125 C 302.019531 236.875 301.988281 236.554688 301.925781 236.234375 C 301.859375 235.914062 301.765625 235.605469 301.640625 235.304688 C 301.519531 235.003906 301.367188 234.71875 301.183594 234.449219 C 301.003906 234.179688 300.796875 233.929688 300.570312 233.699219 C 300.339844 233.46875 300.089844 233.261719 299.820312 233.082031 C 299.546875 232.902344 299.261719 232.75 298.960938 232.625 C 298.660156 232.5 298.351562 232.40625 298.035156 232.339844 C 297.714844 232.277344 297.390625 232.246094 297.066406 232.246094 Z M 297.066406 232.246094 " fill-opacity="1" fill-rule="nonzero"/><path fill="#000000" d="M 311.921875 152.960938 L 302.019531 152.960938 C 301.695312 152.960938 301.371094 152.992188 301.054688 153.054688 C 300.734375 153.117188 300.425781 153.210938 300.125 153.335938 C 299.824219 153.460938 299.539062 153.613281 299.269531 153.792969 C 298.996094 153.976562 298.746094 154.179688 298.519531 154.410156 C 298.289062 154.640625 298.082031 154.890625 297.902344 155.160156 C 297.722656 155.433594 297.570312 155.71875 297.445312 156.019531 C 297.320312 156.320312 297.226562 156.628906 297.164062 156.949219 C 297.097656 157.265625 297.066406 157.589844 297.066406 157.914062 C 297.066406 158.242188 297.097656 158.5625 297.164062 158.882812 C 297.226562 159.199219 297.320312 159.511719 297.445312 159.8125 C 297.570312 160.113281 297.722656 160.398438 297.902344 160.667969 C 298.082031 160.9375 298.289062 161.1875 298.519531 161.417969 C 298.746094 161.648438 298.996094 161.855469 299.269531 162.035156 C 299.539062 162.214844 299.824219 162.367188 300.125 162.492188 C 300.425781 162.617188 300.734375 162.710938 301.054688 162.773438 C 301.371094 162.839844 301.695312 162.871094 302.019531 162.871094 L 311.921875 162.871094 C 312.898438 162.871094 313.863281 162.964844 314.820312 163.15625 C 315.777344 163.347656 316.707031 163.628906 317.609375 164.003906 C 318.507812 164.375 319.367188 164.832031 320.175781 165.375 C 320.988281 165.917969 321.738281 166.535156 322.429688 167.226562 C 323.117188 167.914062 323.734375 168.664062 324.273438 169.476562 C 324.816406 170.289062 325.273438 171.144531 325.648438 172.046875 C 326.019531 172.949219 326.304688 173.878906 326.492188 174.835938 C 326.683594 175.792969 326.777344 176.761719 326.777344 177.738281 L 326.777344 212.425781 C 326.777344 217.378906 325.195312 220.253906 321.828125 221.542969 L 321.828125 182.691406 C 321.828125 182.367188 321.796875 182.042969 321.730469 181.726562 C 321.667969 181.40625 321.574219 181.097656 321.449219 180.796875 C 321.324219 180.496094 321.171875 180.210938 320.992188 179.9375 C 320.8125 179.667969 320.605469 179.417969 320.375 179.1875 C 320.148438 178.957031 319.898438 178.753906 319.625 178.570312 C 319.355469 178.390625 319.070312 178.238281 318.769531 178.113281 C 318.46875 177.988281 318.160156 177.894531 317.839844 177.832031 C 317.523438 177.769531 317.199219 177.738281 316.875 177.738281 C 316.550781 177.738281 316.226562 177.769531 315.910156 177.832031 C 315.589844 177.894531 315.28125 177.988281 314.980469 178.113281 C 314.679688 178.238281 314.394531 178.390625 314.125 178.570312 C 313.855469 178.753906 313.601562 178.957031 313.375 179.1875 C 313.144531 179.417969 312.9375 179.667969 312.757812 179.9375 C 312.578125 180.210938 312.425781 180.496094 312.300781 180.796875 C 312.175781 181.097656 312.082031 181.40625 312.019531 181.726562 C 311.953125 182.042969 311.921875 182.367188 311.921875 182.691406 L 311.921875 301.621094 C 311.921875 301.949219 311.953125 302.269531 312.019531 302.589844 C 312.082031 302.90625 312.175781 303.21875 312.300781 303.519531 C 312.425781 303.820312 312.578125 304.105469 312.757812 304.375 C 312.9375 304.644531 313.144531 304.894531 313.375 305.125 C 313.601562 305.355469 313.855469 305.5625 314.125 305.742188 C 314.394531 305.921875 314.679688 306.074219 314.980469 306.199219 C 315.28125 306.324219 315.589844 306.417969 315.910156 306.480469 C 316.226562 306.546875 316.550781 306.578125 316.875 306.578125 C 317.199219 306.578125 317.523438 306.546875 317.839844 306.480469 C 318.160156 306.417969 318.46875 306.324219 318.769531 306.199219 C 319.070312 306.074219 319.355469 305.921875 319.625 305.742188 C 319.898438 305.5625 320.148438 305.355469 320.375 305.125 C 320.605469 304.894531 320.8125 304.644531 320.992188 304.375 C 321.171875 304.105469 321.324219 303.820312 321.449219 303.519531 C 321.574219 303.21875 321.667969 302.90625 321.730469 302.589844 C 321.796875 302.269531 321.828125 301.949219 321.828125 301.621094 L 321.828125 231.75 C 322.933594 231.570312 324.015625 231.289062 325.070312 230.90625 C 326.125 230.523438 327.132812 230.042969 328.097656 229.46875 C 329.058594 228.894531 329.960938 228.234375 330.800781 227.488281 C 331.636719 226.742188 332.398438 225.925781 333.082031 225.035156 C 333.769531 224.144531 334.363281 223.199219 334.867188 222.195312 C 335.371094 221.195312 335.777344 220.152344 336.085938 219.074219 C 336.394531 217.996094 336.597656 216.894531 336.699219 215.777344 C 336.800781 214.660156 336.792969 213.542969 336.683594 212.425781 L 336.683594 177.738281 C 336.683594 176.925781 336.644531 176.117188 336.5625 175.308594 C 336.484375 174.5 336.363281 173.699219 336.207031 172.902344 C 336.046875 172.105469 335.851562 171.320312 335.617188 170.542969 C 335.382812 169.769531 335.109375 169.003906 334.796875 168.253906 C 334.488281 167.503906 334.140625 166.773438 333.757812 166.058594 C 333.375 165.339844 332.960938 164.644531 332.511719 163.972656 C 332.058594 163.296875 331.578125 162.644531 331.0625 162.019531 C 330.546875 161.390625 330.003906 160.789062 329.429688 160.214844 C 328.859375 159.644531 328.257812 159.097656 327.628906 158.582031 C 327.003906 158.070312 326.351562 157.585938 325.679688 157.136719 C 325.003906 156.683594 324.308594 156.269531 323.59375 155.886719 C 322.878906 155.503906 322.148438 155.15625 321.398438 154.847656 C 320.648438 154.535156 319.886719 154.261719 319.109375 154.027344 C 318.335938 153.789062 317.550781 153.59375 316.753906 153.4375 C 315.957031 153.277344 315.15625 153.160156 314.351562 153.078125 C 313.542969 153 312.734375 152.960938 311.921875 152.960938 Z M 311.921875 152.960938 " fill-opacity="1" fill-rule="nonzero"/></svg>